<svg xmlns="http://www.w3.org/2000/svg" version="1.0" width="943.000000pt" height="943.000000pt"
     viewBox="0 0 943.000000 943.000000" preserveAspectRatio="xMidYMid meet">
  <metadata>
    Created by potrace 1.14, written by Peter Selinger 2001-2017
  </metadata>
  <g transform="translate(0.000000,943.000000) scale(0.100000,-0.100000)" fill="#000000" stroke="none">
    <path
      d="M4580 8669 c-378 -26 -757 -180 -1055 -431 -49 -41 -603 -592 -1231 -1224 -1109 -1118 -1142 -1152 -1222 -1272 -211 -317 -311 -646 -312 -1026 0 -428 143 -828 418 -1166 33 -41 579 -593 1214 -1226 1230 -1227 1213 -1211 1435 -1335 178 -98 407 -176 618 -211 119 -19 446 -16 565 6 305 55 565 166 804 344 78 58 350 323 1195 1166 601 600 1134 1136 1183 1191 448 498 592 1181 383 1813 -46 140 -158 363 -242 482 -55 78 -275 304 -1232 1263 -641 642 -1195 1192 -1231 1221 -271 223 -650 377 -985 401 -165 12 -193 12 -305 4z m390 -623 c182 -39 367 -119 506 -219 l73 -52 -1408 -1410 c-1614 -1617 -1466 -1450 -1466 -1650 0 -189 -71 -105 937 -1111 823 -821 877 -872 938 -900 57 -25 77 -28 160 -29 104 0 163 16 235 65 22 16 423 410 892 876 753 751 856 856 882 910 42 85 55 170 41 253 -22 129 -40 155 -285 401 l-225 225 -877 -877 c-794 -794 -881 -878 -910 -878 -50 0 -60 19 -67 122 -3 51 -10 410 -16 798 -5 388 -13 800 -16 916 -7 207 -6 212 15 233 41 41 65 30 185 -88 l111 -110 788 782 789 781 767 -770 c665 -666 776 -781 829 -862 109 -165 175 -328 206 -514 19 -112 22 -312 6 -413 -30 -194 -112 -401 -221 -563 -40 -59 -298 -323 -1078 -1106 -564 -565 -1073 -1071 -1131 -1124 -276 -251 -565 -366 -920 -365 -290 1 -559 90 -782 259 -51 39 -505 484 -1179 1156 -948 945 -1105 1105 -1157 1183 -171 258 -240 498 -229 805 9 265 78 476 230 700 94 138 2248 2284 2383 2372 162 107 352 183 535 212 116 19 351 15 459 -8z"/>
  </g>
</svg>
